[h264 @ 0x56359e8b6480] Reinit context to 640x352, pix_fmt: yuv420p
Input #0, mov,mp4,m4a,3gp,3g2,mj2, from '/var/www/html/project/media/video/original/IMG_1190.MOV':
  Metadata:
    major_brand     : qt  
    minor_version   : 0
    compatible_brands: qt  
    creation_time   : 2022-03-28T17:49:02.000000Z
  Duration: 00:01:21.43, start: 0.000000, bitrate: 733 kb/s
    Stream #0:0(und): Audio: aac (LC) (mp4a / 0x6134706D), 44100 Hz, mono, fltp, 31 kb/s (default)
    Metadata:
      creation_time   : 2022-03-28T17:49:02.000000Z
      handler_name    : Core Media Audio
    Stream #0:1(und): Video: h264 (High), 1 reference frame (avc1 / 0x31637661), yuv420p(tv, bt709, progressive, left), 640x352, 697 kb/s, SAR 1:1 DAR 20:11, 29.99 fps, 30 tbr, 600 tbn, 1200 tbc (default)
    Metadata:
      creation_time   : 2022-03-28T17:49:02.000000Z
      handler_name    : Core Media Video
      encoder         : 'avc1'
Input #1, png_pipe, from '/var/www/html/project/static/images/templates/logo.png':
  Duration: N/A, bitrate: N/A
    Stream #1:0: Video: png, 1 reference frame, rgba(pc), 1920x1080 [SAR 2835:2835 DAR 16:9], 25 tbr, 25 tbn, 25 tbc
[h264 @ 0x56359e8c1700] Reinit context to 1280x720, pix_fmt: yuv420p
Input #2, mov,mp4,m4a,3gp,3g2,mj2, from '/var/www/html/project/static/images/templates/Codino.mp4':
  Metadata:
    major_brand     : mp42
    minor_version   : 1
    compatible_brands: isommp41mp42
    creation_time   : 2021-07-11T07:02:58.000000Z
  Duration: 00:00:02.00, start: 0.000000, bitrate: 1007 kb/s
    Stream #2:0(ita): Audio: aac (LC) (mp4a / 0x6134706D), 44100 Hz, stereo, fltp, 102 kb/s (default)
    Metadata:
      creation_time   : 2021-07-11T07:02:58.000000Z
      handler_name    : Core Media Audio
    Stream #2:1(und): Video: h264 (High), 1 reference frame (avc1 / 0x31637661), yuv420p(tv, bt709, progressive, left), 1280x720 [SAR 1:1 DAR 16:9], 813 kb/s, 25 fps, 25 tbr, 25k tbn, 50k tbc (default)
    Metadata:
      creation_time   : 2021-07-11T07:02:58.000000Z
      handler_name    : Core Media Video
[Parsed_scale_0 @ 0x56359e8b2b40] w:1280 h:720 flags:'bilinear' interl:0
[Parsed_scale_2 @ 0x56359e90d800] w:1280 h:720 flags:'bilinear' interl:0
[Parsed_scale_4 @ 0x56359e932940] w:1280 h:720 flags:'bilinear' interl:0
Stream mapping:
  Stream #0:0 (aac) -> concat:in0:a0
  Stream #0:1 (h264) -> scale
  Stream #1:0 (png) -> scale
  Stream #2:0 (aac) -> concat:in1:a0
  Stream #2:1 (h264) -> scale
  concat:out:v0 -> Stream #0:0 (libx264)
  concat:out:a0 -> Stream #0:1 (aac)
Press [q] to stop, [?] for help
[h264 @ 0x56359e8e0b00] Reinit context to 640x352, pix_fmt: yuv420p
[h264 @ 0x56359ed66780] Reinit context to 1280x720, pix_fmt: yuv420p
[Parsed_scale_0 @ 0x56359f7caec0] w:1280 h:720 flags:'bilinear' interl:0
[Parsed_scale_2 @ 0x56359ea29700] w:1280 h:720 flags:'bilinear' interl:0
[Parsed_scale_4 @ 0x56359f7d5040] w:1280 h:720 flags:'bilinear' interl:0
[graph 0 input from stream 0:1 @ 0x56359f7d9840] w:640 h:352 pixfmt:yuv420p tb:1/600 fr:30/1 sar:1/1 sws_param:flags=2
[graph 0 input from stream 1:0 @ 0x56359f7da8c0] w:1920 h:1080 pixfmt:rgba tb:1/25 fr:25/1 sar:2835/2835 sws_param:flags=2
[graph 0 input from stream 2:1 @ 0x56359f7db940] w:1280 h:720 pixfmt:yuv420p tb:1/25000 fr:25/1 sar:1/1 sws_param:flags=2
[graph_0_in_0_0 @ 0x56359f7dc8c0] tb:1/44100 samplefmt:fltp samplerate:44100 chlayout:0x4
[graph_0_in_2_0 @ 0x56359f7dda00] tb:1/44100 samplefmt:fltp samplerate:44100 chlayout:0x3
[Parsed_concat_7 @ 0x56359f7d78c0] auto-inserting filter 'auto_resampler_0' between the filter 'graph_0_in_2_0' and the filter 'Parsed_concat_7'
[Parsed_scale_0 @ 0x56359f7caec0] w:640 h:352 fmt:yuv420p sar:1/1 -> w:1280 h:720 fmt:yuv420p sar:45/44 flags:0x2
[Parsed_setsar_1 @ 0x56359ea29880] w:1280 h:720 sar:45/44 dar:20/11 -> sar:1/1 dar:16/9
[Parsed_scale_2 @ 0x56359ea29700] w:1920 h:1080 fmt:rgba sar:2835/2835 -> w:1280 h:720 fmt:yuva420p sar:1/1 flags:0x2
[Parsed_setsar_3 @ 0x56359f7d44c0] w:1280 h:720 sar:1/1 dar:16/9 -> sar:1/1 dar:16/9
[Parsed_overlay_6 @ 0x56359f7d6780] main w:1280 h:720 fmt:yuv420p overlay w:1280 h:720 fmt:yuva420p
[Parsed_overlay_6 @ 0x56359f7d6780] [framesync @ 0x56359f7d68e8] Selected 1/600 time base
[Parsed_overlay_6 @ 0x56359f7d6780] [framesync @ 0x56359f7d68e8] Sync level 2
[Parsed_scale_4 @ 0x56359f7d5040] w:1280 h:720 fmt:yuv420p sar:1/1 -> w:1280 h:720 fmt:yuv420p sar:1/1 flags:0x2
[Parsed_setsar_5 @ 0x56359f7d5b80] w:1280 h:720 sar:1/1 dar:16/9 -> sar:1/1 dar:16/9
[auto_resampler_0 @ 0x56359f7e4ec0] ch:2 chl:stereo fmt:fltp r:44100Hz -> ch:1 chl:mono fmt:fltp r:44100Hz
[libx264 @ 0x56359e936080] using SAR=1/1
[libx264 @ 0x56359e936080] using cpu capabilities: MMX2 SSE2Fast SSSE3 SSE4.2 AVX FMA3 BMI2 AVX2
[libx264 @ 0x56359e936080] profile High, level 3.1
[libx264 @ 0x56359e936080] 264 - core 155 r2917 0a84d98 - H.264/MPEG-4 AVC codec - Copyleft 2003-2018 - http://www.videolan.org/x264.html - options: cabac=1 ref=1 deblock=1:0:0 analyse=0x3:0x113 me=hex subme=2 psy=1 psy_rd=1.00:0.00 mixed_ref=0 me_range=16 chroma_me=1 trellis=0 8x8dct=1 cqm=0 deadzone=21,11 fast_pskip=1 chroma_qp_offset=0 threads=22 lookahead_threads=5 sliced_threads=0 nr=0 decimate=1 interlaced=0 bluray_compat=0 constrained_intra=0 bframes=3 b_pyramid=2 b_adapt=1 b_bias=0 direct=1 weightb=1 open_gop=0 weightp=1 keyint=250 keyint_min=25 scenecut=40 intra_refresh=0 rc_lookahead=10 rc=crf mbtree=1 crf=18.0 qcomp=0.60 qpmin=0 qpmax=69 qpstep=4 ip_ratio=1.40 aq=1:1.00
Output #0, mp4, to '/var/www/html/project/media/video/watermarks/IMG_1190.mp4':
  Metadata:
    major_brand     : qt  
    minor_version   : 0
    compatible_brands: qt  
    encoder         : Lavf58.29.100
    Stream #0:0: Video: h264 (libx264), 1 reference frame (avc1 / 0x31637661), yuv420p(progressive), 1280x720 [SAR 1:1 DAR 16:9], q=-1--1, 30 fps, 15360 tbn, 30 tbc (default)
    Metadata:
      encoder         : Lavc58.54.100 libx264
    Side data:
      cpb: bitrate max/min/avg: 0/0/0 buffer size: 0 vbv_delay: -1
    Stream #0:1: Audio: aac (LC) (mp4a / 0x6134706D), 44100 Hz, mono, fltp, delay 1024, 69 kb/s (default)
    Metadata:
      encoder         : Lavc58.54.100 aac
[Parsed_concat_7 @ 0x56359f7d78c0] EOF on in0:a0, 1 streams left in segment.
[Parsed_overlay_6 @ 0x56359f7d6780] [framesync @ 0x56359f7d68e8] Sync level 0
[Parsed_concat_7 @ 0x56359f7d78c0] EOF on in0:v0, 0 streams left in segment.
[Parsed_concat_7 @ 0x56359f7d78c0] Segment finished at pts=81433333
[Parsed_concat_7 @ 0x56359f7d78c0] EOF on in1:a0, 1 streams left in segment.
[Parsed_concat_7 @ 0x56359f7d78c0] EOF on in1:v0, 0 streams left in segment.
[Parsed_concat_7 @ 0x56359f7d78c0] Segment finished at pts=83452018
No more output streams to write to, finishing.
frame= 2493 fps=237 q=-1.0 Lsize=   35030kB time=00:01:23.45 bitrate=3438.7kbits/s speed=7.93x    
[AVIOContext @ 0x56359e8af440] Statistics: 0 seeks, 21 writeouts
video:34239kB audio:702kB subtitle:0kB other streams:0kB global headers:0kB muxing overhead: 0.253998%
Input file #0 (/var/www/html/project/media/video/original/IMG_1190.MOV):
  Input stream #0:0 (audio): 3509 packets read (319840 bytes); 3507 frames decoded (3591104 samples); 
  Input stream #0:1 (video): 2443 packets read (7100049 bytes); 2443 frames decoded; 
  Total: 5952 packets (7419889 bytes) demuxed
Input file #1 (/var/www/html/project/static/images/templates/logo.png):
  Input stream #1:0 (video): 1 packets read (111578 bytes); 1 frames decoded; 
  Total: 1 packets (111578 bytes) demuxed
Input file #2 (/var/www/html/project/static/images/templates/Codino.mp4):
  Input stream #2:0 (audio): 89 packets read (26579 bytes); 87 frames decoded (89024 samples); 
  Input stream #2:1 (video): 50 packets read (203365 bytes); 50 frames decoded; 
  Total: 139 packets (229944 bytes) demuxed
Output file #0 (/var/www/html/project/media/video/watermarks/IMG_1190.mp4):
  Output stream #0:0 (video): 2493 frames encoded; 2493 packets muxed (35061075 bytes); 
  Output stream #0:1 (audio): 3594 frames encoded (3680234 samples); 3595 packets muxed (719100 bytes); 
  Total: 6088 packets (35780175 bytes) muxed
[AVIOContext @ 0x56359e936940] Statistics: 2 seeks, 140 writeouts
[libx264 @ 0x56359e936080] frame I:11    Avg QP:14.09  size: 70007
[libx264 @ 0x56359e936080] frame P:1131  Avg QP:17.73  size: 22807
[libx264 @ 0x56359e936080] frame B:1351  Avg QP:20.95  size:  6288
[libx264 @ 0x56359e936080] consecutive B-frames:  3.1% 70.3% 11.1% 15.6%
[libx264 @ 0x56359e936080] mb I  I16..4: 24.8% 21.0% 54.3%
[libx264 @ 0x56359e936080] mb P  I16..4:  8.4% 10.6%  4.5%  P16..4: 29.9% 14.6%  9.8%  0.0%  0.0%    skip:22.2%
[libx264 @ 0x56359e936080] mb B  I16..4:  1.9%  1.8%  0.8%  B16..8: 17.0%  5.9%  1.0%  direct: 7.9%  skip:63.6%  L0:34.6% L1:51.4% BI:14.0%
[libx264 @ 0x56359e936080] 8x8 transform intra:43.4% inter:48.8%
[libx264 @ 0x56359e936080] coded y,uvDC,uvAC intra: 52.7% 34.1% 8.7% inter: 16.5% 9.8% 0.4%
[libx264 @ 0x56359e936080] i16 v,h,dc,p: 56% 33%  8%  3%
[libx264 @ 0x56359e936080] i8 v,h,dc,ddl,ddr,vr,hd,vl,hu: 24% 41% 15%  3%  3%  3%  4%  3%  5%
[libx264 @ 0x56359e936080] i4 v,h,dc,ddl,ddr,vr,hd,vl,hu: 27% 29% 13%  4%  6%  5%  7%  4%  5%
[libx264 @ 0x56359e936080] i8c dc,h,v,p: 54% 25% 16%  4%
[libx264 @ 0x56359e936080] Weighted P-Frames: Y:1.9% UV:0.2%
[libx264 @ 0x56359e936080] kb/s:3361.76
[aac @ 0x56359ea73bc0] Qavg: 671.082
[AVIOContext @ 0x56359e8b8380] Statistics: 160191641 bytes read, 4873 seeks
[AVIOContext @ 0x56359e8b5980] Statistics: 111578 bytes read, 0 seeks
[AVIOContext @ 0x56359e8b5440] Statistics: 1530915 bytes read, 42 seeks
